PathFileType	3	(X/Y/Z)	C:\Users\koon_\Desktop\
DataRate	CameraRate	NumFrames	NumMarkers	Units	OrigDataRate	OrigDataStartFrame	OrigNumFrames
100.0	100.0	5	27	mm	100.0	505	2016	
Frame#	Time	get:LFHD			get:RFHD			get:LBHD			get:RBHD			get:C7			get:T10			get:CLAV			get:STRN			get:RBAK			get:LSHO			get:LUPA			get:LELB			get:LFRA			get:LWRA			get:LWRB			get:LFIN			get:RSHO			get:RUPA			get:RELB			get:RFRA			get:RWRA			get:RWRB			get:RFIN			get:LASI			get:RASI			get:LPSI			get:RPSI			
		X1	Y1	Z1	X2	Y2	Z2	X3	Y3	Z3	X4	Y4	Z4	X5	Y5	Z5	X6	Y6	Z6	X7	Y7	Z7	X8	Y8	Z8	X9	Y9	Z9	X10	Y10	Z10	X11	Y11	Z11	X12	Y12	Z12	X13	Y13	Z13	X14	Y14	Z14	X15	Y15	Z15	X16	Y16	Z16	X17	Y17	Z17	X18	Y18	Z18	X19	Y19	Z19	X20	Y20	Z20	X21	Y21	Z21	X22	Y22	Z22	X23	Y23	Z23	X24	Y24	Z24	X25	Y25	Z25	X26	Y26	Z26	X27	Y27	Z27	
505	5.04	80.603012	1174.7876	412.92798	-61.359356	1170.7871	415.03857	53.522724	1182.8241	253.50171	-76.084221	1157.0508	249.14981	16.663271	1082.9036	228.9944	4.7320633	1052.8495	21.108206	1.6430368	860.16229	238.04367	14.816065	766.55725	59.678513	-65.204475	1076.0483	153.70784	137.83945	986.20447	271.31598	230.96523	928.27753	145.95595	263.79282	899.70325	-48.626858	252.08882	777.56073	-115.88634	224.19875	717.46948	-168.97784	274.25906	773.67114	-210.69386	293.9841	675.99786	-212.41013	-122.96782	997.08087	260.41153	-237.15204	925.90369	61.68446	-250.55331	951.56189	-66.046654	-255.67461	852.48297	-68.307426	-226.2968	744.75677	-172.40324	-271.57782	795.06384	-217.41466	-286.27811	697.10004	-210.51617	134.02473	815.04877	-85.565727	-131.50864	806.47345	-83.846283	32.58971	991.19409	-223.03758	-58.389576	990.14264	-221.32841
506	5.05	80.858833	1172.5583	413.94226	-61.12822	1168.1039	416.34274	53.276264	1181.5066	254.59737	-76.260246	1155.3795	250.42128	16.738619	1081.4016	229.48308	4.7597747	1052.1288	21.348259	2.4691985	858.51343	237.67325	15.538498	765.64783	58.895267	-65.20163	1074.5792	154.26317	138.38786	984.93616	271.06824	231.28798	927.46008	145.26204	263.50723	899.5423	-49.704624	251.71506	777.83862	-117.67332	223.84956	718.09906	-171.01683	273.71777	774.67877	-212.57298	293.69073	677.09882	-214.86952	-122.5136	995.04352	260.60226	-236.87361	924.1311	62.199173	-250.97206	950.28741	-65.542282	-255.66379	851.22443	-68.155426	-226.19839	744.11334	-173.12361	-272.21936	794.40741	-217.42352	-286.19223	696.33356	-210.90126	134.17824	814.88141	-86.026619	-131.36168	806.21155	-83.685585	32.379936	991.16296	-223.09784	-58.574654	990.09308	-221.14838
507	5.06	80.972801	1170.9467	414.78766	-60.947464	1166.0175	417.54916	52.981571	1180.7161	255.58734	-76.483887	1154.1429	251.52892	16.85969	1080.3865	229.81085	4.7367048	1051.5911	21.533342	3.1627562	857.30603	237.16658	16.147484	764.98547	58.161896	-65.228462	1073.5099	154.74083	138.85809	984.05505	270.7489	231.49979	926.96405	144.48405	263.17526	899.34149	-50.533283	251.34518	778.07318	-119.23545	223.34378	718.58173	-172.99361	273.16916	775.53583	-214.10498	293.38107	678.13599	-216.92908	-122.09557	993.54828	260.99396	-236.66016	922.68817	62.474751	-251.33505	949.13159	-65.075661	-255.66658	850.0816	-68.059486	-226.18773	743.47638	-173.58916	-272.72812	793.72662	-217.35428	-286.23288	695.57043	-211.09016	134.33029	814.7392	-86.399933	-131.23366	806.00745	-83.599998	32.266655	991.13513	-223.15906	-58.712749	990.09094	-221.0506
508	5.07	81.010048	1169.8987	415.48572	-60.903473	1164.4684	418.52673	52.712788	1180.4408	256.43976	-76.710808	1153.343	252.60863	16.968481	1079.8977	230.0121	4.7433124	1051.3203	21.584368	3.8030808	856.54163	236.90891	16.731075	764.5108	57.661541	-65.247726	1072.9705	154.93576	139.23868	983.61462	270.47107	231.68886	926.84515	143.85284	262.74698	899.18707	-51.210178	250.82716	778.43231	-120.48602	222.81732	719.64752	-174.09326	272.55246	776.37164	-215.41667	292.95517	679.05334	-218.49973	-121.69341	992.54144	260.95047	-236.36407	921.56274	62.692719	-251.66377	948.17578	-64.703232	-255.60529	849.06323	-67.770142	-226.32863	742.87054	-173.80444	-273.22617	793.28094	-217.41975	-286.38412	694.89709	-211.04782	134.44223	814.61749	-86.796761	-131.12874	805.93683	-83.428558	32.171669	991.06152	-223.2457	-58.781303	990.11786	-220.97009
509	5.08	80.979668	1169.4611	416.13605	-60.944412	1163.595	419.27045	52.446537	1180.6819	257.13693	-76.839798	1153.2083	253.23752	17.010344	1079.7684	230.05998	4.7776222	1051.2448	21.53034	4.3519082	856.24493	236.66585	17.300142	764.33069	57.319393	-65.265999	1072.7848	155.0853	139.47008	983.61383	270.13342	231.79832	927.05414	143.43222	262.3493	899.3457	-51.866161	250.20128	778.80365	-121.54239	222.20375	719.90546	-175.71071	272.04092	777.15356	-216.40356	292.37979	679.82709	-219.75903	-121.32909	992.06067	260.88925	-236.1474	920.81683	62.897003	-251.88419	947.39679	-64.425156	-255.55563	848.34497	-68.038437	-226.43069	742.30634	-173.88062	-273.6246	792.78186	-217.28947	-286.60815	694.3739	-210.8205	134.48839	814.47369	-87.133789	-131.07385	805.76941	-83.520195	32.175549	990.99847	-223.30252	-58.76783	990.11487	-220.95782
